# xmcd
#
# Track frame offsets:
#  182
#  15355
#  28845
#  43815
#  62327
#  77627
#  92915
#  108650
#  127897
#  141410
#  176942
#  187950
#  204697
#  228195
#  245202
#  264905
#  282865
#  299760
#
# Disc length: 4201 seconds
#
# Revision: 0
# Processed by: cddbd v1.5.2PL0 Copyright (c) Steve Scherf et al.
# Submitted via: Collectorz.com_Music_Collector 6.11
#
DISCID=0b106712
DTITLE=Various Artist - Pseudonym Sampler Volume 2
DYEAR=1997
DGENRE=Rock
TTITLE0=Eddie Howell - The Man From Manhattan
TTITLE1=The Outsiders - Keep On Trying
TTITLE2=Livin' Blues - Boogie Woogie Woman
TTITLE3=Andy Scott's Sweet - X-Ray Specs
TTITLE4=Catapult - Seven Eleven
TTITLE5=Bodine - Rock Rosetta
TTITLE6=Groep 1850 - Mother No-Head
TTITLE7=Kayak - Chance For A Lifetime
TTITLE8=Strange Hobby - Arnold Layne
TTITLE9=Drama - I'm Your Hoochie Coochie Man
TTITLE10=Q 65 - I Despice You
TTITLE11=Jan Akkerman - Tommy
TTITLE12=Helloïse - For A Moment
TTITLE13=Ayreon - Sail Away To Avalon
TTITLE14=Brainbox - Summertime
TTITLE15=Teaser - Break My Heart
TTITLE16=Livin' Blues - Ram Jam Josey
TTITLE17=Normaal - Jambalaya
EXTD=
EXTT0=
EXTT1=
EXTT2=
EXTT3=
EXTT4=
EXTT5=
EXTT6=
EXTT7=
EXTT8=
EXTT9=
EXTT10=
EXTT11=
EXTT12=
EXTT13=
EXTT14=
EXTT15=
EXTT16=
EXTT17=
PLAYORDER=
